<?xml version="1.0" encoding="UTF-8" standalone="no"?>
<!DOCTYPE svg PUBLIC "-//W3C//DTD SVG 1.1//EN" "http://www.w3.org/Graphics/SVG/1.1/DTD/svg11.dtd">
<svg version="1.1" xmlns="http://www.w3.org/2000/svg" xmlns:xlink="http://www.w3.org/1999/xlink" preserveAspectRatio="xMidYMid meet" viewBox="145.1333333333331 293.49999999999983 187.21560833459756 92.89947842386368" width="181.22" height="86.9"><defs><path d="M294.6 310.7L294.6 296.5L148.13 296.5L148.13 352.47L256.73 352.47" id="gwaF1sND1"></path><path d="M299.45 318.37L300.76 318.51L302.06 318.69L303.34 318.93L304.6 319.21L305.85 319.55L307.07 319.93L308.27 320.35L309.45 320.83L310.61 321.34L311.74 321.9L312.85 322.51L313.93 323.15L314.99 323.83L316.01 324.55L317.01 325.31L317.97 326.11L318.9 326.94L319.81 327.81L320.67 328.71L321.51 329.64L322.3 330.61L323.06 331.6L323.78 332.63L324.47 333.68L325.11 334.76L325.71 335.87L326.27 337L326.79 338.16L327.26 339.34L327.69 340.54L328.07 341.77L328.4 343.01L328.69 344.27L328.92 345.55L329.11 346.85L329.24 348.16L329.32 349.49L329.35 350.83L329.32 352.17L329.24 353.5L329.11 354.82L328.92 356.11L328.69 357.39L328.4 358.66L328.07 359.9L327.69 361.12L327.26 362.32L326.79 363.5L326.27 364.66L325.71 365.79L325.11 366.9L324.47 367.98L323.78 369.04L323.06 370.06L322.3 371.06L321.51 372.02L320.67 372.96L319.81 373.86L318.9 374.72L317.97 375.56L317.01 376.35L316.01 377.11L314.99 377.83L313.93 378.52L312.85 379.16L311.74 379.76L310.61 380.32L309.45 380.84L308.27 381.31L307.07 381.74L305.85 382.12L304.6 382.45L303.34 382.74L302.06 382.97L300.76 383.16L299.45 383.29L298.12 383.37L296.78 383.4L295.44 383.37L294.11 383.29L292.8 383.16L291.5 382.97L290.22 382.74L288.96 382.45L287.72 382.12L286.49 381.74L285.29 381.31L284.11 380.84L282.95 380.32L281.82 379.76L280.71 379.16L279.63 378.52L278.58 377.83L277.55 377.11L276.56 376.35L275.59 375.56L274.66 374.72L273.76 373.86L272.89 372.96L272.06 372.02L271.26 371.06L270.5 370.06L269.78 369.04L269.1 367.98L268.46 366.9L267.85 365.79L267.29 364.66L266.78 363.5L266.3 362.32L265.88 361.12L265.5 359.9L265.16 358.66L264.88 357.39L264.64 356.11L264.46 354.82L264.32 353.5L264.24 352.17L264.22 350.83L264.24 349.49L264.32 348.16L264.46 346.85L264.64 345.55L264.88 344.27L265.16 343.01L265.5 341.77L265.88 340.54L266.3 339.34L266.78 338.16L267.29 337L267.85 335.87L268.46 334.76L269.1 333.68L269.78 332.63L270.5 331.6L271.26 330.61L272.06 329.64L272.89 328.71L273.76 327.81L274.66 326.94L275.59 326.11L276.56 325.31L277.55 324.55L278.58 323.83L279.63 323.15L280.71 322.51L281.82 321.9L282.95 321.34L284.11 320.83L285.29 320.35L286.49 319.93L287.72 319.55L288.96 319.21L290.22 318.93L291.5 318.69L292.8 318.51L294.11 318.37L295.44 318.29L296.78 318.27L298.12 318.29L299.45 318.37ZM311.8 333.14L311.37 333.22L310.94 333.34L310.53 333.48L310.12 333.67L309.73 333.88L309.35 334.13L308.99 334.4L308.65 334.72L308.33 335.06L290.88 355.31L284.71 349.98L284.15 349.56L283.57 349.22L282.95 348.96L282.32 348.78L281.67 348.67L281.02 348.64L280.37 348.69L279.73 348.81L279.1 349.01L278.5 349.29L277.93 349.64L277.4 350.06L276.91 350.56L276.1 351.5L275.68 352.05L275.34 352.64L275.08 353.25L274.9 353.89L274.79 354.54L274.76 355.19L274.81 355.84L274.93 356.48L275.13 357.1L275.41 357.71L275.76 358.28L276.18 358.81L276.68 359.29L287.98 369.04L288.53 369.46L289.12 369.8L289.73 370.06L290.37 370.24L291.01 370.35L291.67 370.38L292.32 370.33L292.96 370.21L293.58 370.01L294.18 369.73L294.75 369.38L295.28 368.96L295.77 368.46L296.58 367.52L296.78 367.26L296.79 367.25L297.11 366.91L317.64 343.08L317.93 342.72L318.19 342.33L318.41 341.93L318.6 341.52L318.75 341.1L318.87 340.68L318.96 340.24L319.01 339.8L319.03 339.37L319.01 338.93L318.96 338.49L318.88 338.06L318.76 337.63L318.61 337.22L318.43 336.81L318.22 336.42L317.97 336.04L317.69 335.68L317.38 335.34L317.04 335.02L316.39 334.46L316.02 334.17L315.64 333.91L315.24 333.69L314.83 333.5L314.41 333.35L313.98 333.23L313.55 333.14L313.11 333.09L312.67 333.07L312.23 333.09L311.8 333.14Z" id="a2KboxbYfW"></path></defs><g><g><g><use xlink:href="#gwaF1sND1" opacity="1" fill-opacity="0" stroke="#000000" stroke-width="6" stroke-opacity="1"></use></g></g><g><use xlink:href="#a2KboxbYfW" opacity="1" fill="#32b100" fill-opacity="1"></use></g></g></svg>